<svg xmlns="http://www.w3.org/2000/svg" version="1.1" xmlns:xlink="http://www.w3.org/1999/xlink" xmlns:svgjs="http://svgjs.dev/svgjs" width="1500" height="1500" viewBox="0 0 1500 1500"><g transform="matrix(1,0,0,1,-0.21332335329316265,-0.21332335329350371)"><svg viewBox="0 0 334 334" data-background-color="#ffffff" preserveAspectRatio="xMidYMid meet" height="1500" width="1500" xmlns="http://www.w3.org/2000/svg" xmlns:xlink="http://www.w3.org/1999/xlink"><g id="tight-bounds" transform="matrix(1,0,0,1,0.04749999999998522,0.04750000000001364)"><svg viewBox="0 0 333.90454557049503 333.90454557049503" height="333.90454557049503" width="333.90454557049503"><g><svg></svg></g><g><svg viewBox="0 0 333.90454557049503 333.90454557049503" height="333.90454557049503" width="333.90454557049503"><g><path d="M0 166.952c0-92.205 74.747-166.952 166.952-166.952 92.205 0 166.952 74.747 166.953 166.952 0 92.205-74.747 166.952-166.953 166.953-92.205 0-166.952-74.747-166.952-166.953zM166.952 316.63c82.665 0 149.677-67.013 149.678-149.678 0-82.665-67.013-149.677-149.678-149.677-82.665 0-149.677 67.013-149.677 149.677 0 82.665 67.013 149.677 149.677 149.678z" data-fill-palette-color="tertiary" fill="#dd2010" stroke="transparent"></path><ellipse rx="160.27418187383762" ry="160.27418187383762" cx="166.95227278524752" cy="166.95227278524752" fill="#dd2010" stroke="transparent" stroke-width="0" fill-opacity="1" data-fill-palette-color="tertiary"></ellipse></g><g transform="matrix(1,0,0,1,80.43134277183076,71.17305217166896)"><svg viewBox="0 0 173.04186002683352 191.55844122715712" height="191.55844122715712" width="173.04186002683352"><g><svg viewBox="0 0 173.04186002683352 191.55844122715712" height="191.55844122715712" width="173.04186002683352"><g><svg viewBox="0 0 173.04186002683352 191.55844122715712" height="191.55844122715712" width="173.04186002683352"><g><svg viewBox="0 0 173.04186002683352 191.55844122715712" height="191.55844122715712" width="173.04186002683352"><g id="textblocktransform"><svg viewBox="0 0 173.04186002683352 191.55844122715712" height="191.55844122715712" width="173.04186002683352" id="textblock"><g><svg viewBox="0 0 173.04186002683352 191.55844122715712" height="191.55844122715712" width="173.04186002683352"><g transform="matrix(1,0,0,1,0,0)"><svg width="173.04186002683352" viewBox="6.1499999999999995 -43.2 39.25000000000001 43.45" height="191.55844122715712" data-palette-color="#ffffff"><path d="M43.2-21.6Q44.35-21.6 44.88-21.1 45.4-20.6 45.4-19.8L45.4-19.8Q45.4-18.5 44.63-17.5 43.85-16.5 42.2-16.45L42.2-16.45Q38.2-16.35 35.1-17.05L35.1-17.05Q31.55-9.6 26.53-4.67 21.5 0.25 16.45 0.25L16.45 0.25Q11.25 0.25 8.7-5.8 6.15-11.85 6.15-22.15L6.15-22.15Q6.15-30.95 7.4-37.95L7.4-37.95Q7.85-40.55 8.68-41.48 9.5-42.4 11.5-42.4L11.5-42.4Q14.8-42.4 14.8-39.55L14.8-39.55Q14.8-39.25 14.7-38.45L14.7-38.45Q13.2-29.45 13.2-22.15L13.2-22.15Q13.2-14.5 14.48-10.53 15.75-6.55 18.3-6.55L18.3-6.55Q20.9-6.55 23.95-10.15 27-13.75 29.55-19.2L29.55-19.2Q26.5-21.1 24.95-24.13 23.4-27.15 23.4-31.1L23.4-31.1Q23.4-35.05 24.63-37.77 25.85-40.5 27.98-41.85 30.1-43.2 32.7-43.2L32.7-43.2Q35.9-43.2 37.77-40.9 39.65-38.6 39.65-34.6L39.65-34.6Q39.65-28.85 37.15-22.05L37.15-22.05Q39.8-21.6 43.2-21.6L43.2-21.6ZM28.45-31.45Q28.45-26.55 31.6-24.2L31.6-24.2Q33.55-29.8 33.55-33.45L33.55-33.45Q33.55-35.55 33-36.52 32.45-37.5 31.5-37.5L31.5-37.5Q30.15-37.5 29.3-35.93 28.45-34.35 28.45-31.45L28.45-31.45Z" opacity="1" transform="matrix(1,0,0,1,0,0)" fill="#ffffff" class="wordmark-text-0" data-fill-palette-color="quaternary" id="text-0"></path></svg></g></svg></g></svg></g></svg></g><g></g></svg></g></svg></g></svg></g></svg></g><defs></defs></svg><rect width="333.90454557049503" height="333.90454557049503" fill="none" stroke="none" visibility="hidden"></rect></g></svg></g></svg>